HIERARCHY
ROOT Hips
{
  OFFSET 5.72205e-005 65.662 3.42586
  CHANNELS 6 Xposition Yposition Zposition Zrotation Xrotation Yrotation
  JOINT Chest
  {
    OFFSET 0 8.7983 -4.7612
    CHANNELS 3 Zrotation Xrotation Yrotation
    JOINT Chest2
    {
      OFFSET 0 8.0291 0.4195
      CHANNELS 3 Zrotation Xrotation Yrotation
      JOINT Chest3
      {
        OFFSET 0 9.9351 -2.2114
        CHANNELS 3 Zrotation Xrotation Yrotation
        JOINT Neck
        {
          OFFSET 0 22.3885 -0.4656
          CHANNELS 3 Zrotation Xrotation Yrotation
          JOINT Head
          {
            OFFSET -0.0001 12.643 3.4389
            CHANNELS 3 Zrotation Xrotation Yrotation
            End Site
            {
              OFFSET 0.0001 17.6655 0.5274
            }
          }
        }
        JOINT LeftCollar
        {
          OFFSET 2.2603 21.606 7.4023
          CHANNELS 3 Zrotation Xrotation Yrotation
          JOINT LeftShoulder
          {
            OFFSET 13.5163 -1.1332 -5.0146
            CHANNELS 3 Zrotation Xrotation Yrotation
            JOINT LeftElbow
            {
              OFFSET -0.0995 -28.05 -0.2431
              CHANNELS 3 Zrotation Xrotation Yrotation
              JOINT LeftWrist
              {
                OFFSET 0.0679 -23.3996 -0.1402
                CHANNELS 3 Zrotation Xrotation Yrotation
                JOINT LeftFinger1
                {
                  OFFSET 0.7932 -9.069 2.5189
                  CHANNELS 3 Zrotation Xrotation Yrotation
                  JOINT LeftFinger11
                  {
                    OFFSET -0.8272 -3.3923 0.5977
                    CHANNELS 3 Zrotation Xrotation Yrotation
                    JOINT LeftFinger12
                    {
                      OFFSET -0.5649 -2.3158 0.4082
                      CHANNELS 3 Zrotation Xrotation Yrotation
                      End Site
                      {
                        OFFSET -0.4919 -1.6479 0.2673
                      }
                    }
                  }
                }
                JOINT LeftFinger2
                {
                  OFFSET 0.9159 -9.2044 0.2193
                  CHANNELS 3 Zrotation Xrotation Yrotation
                  JOINT LeftFinger21
                  {
                    OFFSET 0.0117 -4.1944 -0.0248
                    CHANNELS 3 Zrotation Xrotation Yrotation
                    JOINT LeftFinger22
                    {
                      OFFSET 0.0071 -2.3249 -0.0142
                      CHANNELS 3 Zrotation Xrotation Yrotation
                      End Site
                      {
                        OFFSET -0.1475 -2.0882 0.0028
                      }
                    }
                  }
                }
                JOINT LeftFinger3
                {
                  OFFSET 0.6113 -8.7231 -2.0637
                  CHANNELS 3 Zrotation Xrotation Yrotation
                  JOINT LeftFinger31
                  {
                    OFFSET -0.1927 -3.8059 -0.2383
                    CHANNELS 3 Zrotation Xrotation Yrotation
                    JOINT LeftFinger32
                    {
                      OFFSET -0.1091 -2.1688 -0.1362
                      CHANNELS 3 Zrotation Xrotation Yrotation
                      End Site
                      {
                        OFFSET -0.2358 -1.9176 -0.0906
                      }
                    }
                  }
                }
                JOINT LeftFinger4
                {
                  OFFSET -0.6151 -8.0947 -3.5641
                  CHANNELS 3 Zrotation Xrotation Yrotation
                  JOINT LeftFinger41
                  {
                    OFFSET -0.4882 -2.341 -0.6462
                    CHANNELS 3 Zrotation Xrotation Yrotation
                    JOINT LeftFinger42
                    {
                      OFFSET -0.3575 -1.7167 -0.4742
                      CHANNELS 3 Zrotation Xrotation Yrotation
                      End Site
                      {
                        OFFSET -0.4187 -1.5237 -0.3496
                      }
                    }
                  }
                }
                JOINT LeftFinger0
                {
                  OFFSET -1.42 -1.8761 1.4223
                  CHANNELS 3 Zrotation Xrotation Yrotation
                  JOINT LeftFinger01
                  {
                    OFFSET -1.1471 -3.4929 2.6334
                    CHANNELS 3 Zrotation Xrotation Yrotation
                    JOINT LeftFinger02
                    {
                      OFFSET -0.823 -2.3 1.6571
                      CHANNELS 3 Zrotation Xrotation Yrotation
                      End Site
                      {
                        OFFSET -0.5822 -1.6914 1.1582
                      }
                    }
                  }
                }
              }
            }
          }
        }
        JOINT RightCollar
        {
          OFFSET -2.2603 21.606 7.4023
          CHANNELS 3 Zrotation Xrotation Yrotation
          JOINT RightShoulder
          {
            OFFSET -13.5187 -1.1334 -5.0155
            CHANNELS 3 Zrotation Xrotation Yrotation
            JOINT RightElbow
            {
              OFFSET 0.0994 -28.0499 -0.2431
              CHANNELS 3 Zrotation Xrotation Yrotation
              JOINT RightWrist
              {
                OFFSET -0.0679 -23.3996 -0.1402
                CHANNELS 3 Zrotation Xrotation Yrotation
                JOINT RightFinger1
                {
                  OFFSET -0.7932 -9.0691 2.5189
                  CHANNELS 3 Zrotation Xrotation Yrotation
                  JOINT RightFinger11
                  {
                    OFFSET 0.8272 -3.3923 0.5977
                    CHANNELS 3 Zrotation Xrotation Yrotation
                    JOINT RightFinger12
                    {
                      OFFSET 0.565 -2.3158 0.4082
                      CHANNELS 3 Zrotation Xrotation Yrotation
                      End Site
                      {
                        OFFSET 0.4919 -1.6479 0.2673
                      }
                    }
                  }
                }
                JOINT RightFinger2
                {
                  OFFSET -0.916 -9.2044 0.2193
                  CHANNELS 3 Zrotation Xrotation Yrotation
                  JOINT RightFinger21
                  {
                    OFFSET -0.0117 -4.1944 -0.0248
                    CHANNELS 3 Zrotation Xrotation Yrotation
                    JOINT RightFinger22
                    {
                      OFFSET -0.0071 -2.3249 -0.0142
                      CHANNELS 3 Zrotation Xrotation Yrotation
                      End Site
                      {
                        OFFSET 0.1475 -2.0882 0.0028
                      }
                    }
                  }
                }
                JOINT RightFinger3
                {
                  OFFSET -0.6113 -8.7231 -2.0637
                  CHANNELS 3 Zrotation Xrotation Yrotation
                  JOINT RightFinger31
                  {
                    OFFSET 0.1927 -3.8059 -0.2383
                    CHANNELS 3 Zrotation Xrotation Yrotation
                    JOINT RightFinger32
                    {
                      OFFSET 0.1091 -2.1688 -0.1362
                      CHANNELS 3 Zrotation Xrotation Yrotation
                      End Site
                      {
                        OFFSET 0.2358 -1.9176 -0.0906
                      }
                    }
                  }
                }
                JOINT RightFinger4
                {
                  OFFSET 0.6151 -8.0947 -3.564
                  CHANNELS 3 Zrotation Xrotation Yrotation
                  JOINT RightFinger41
                  {
                    OFFSET 0.4882 -2.341 -0.6462
                    CHANNELS 3 Zrotation Xrotation Yrotation
                    JOINT RightFinger42
                    {
                      OFFSET 0.3574 -1.7166 -0.4742
                      CHANNELS 3 Zrotation Xrotation Yrotation
                      End Site
                      {
                        OFFSET 0.4187 -1.5237 -0.3496
                      }
                    }
                  }
                }
                JOINT RightFinger0
                {
                  OFFSET 1.4199 -1.8761 1.4221
                  CHANNELS 3 Zrotation Xrotation Yrotation
                  JOINT RightFinger01
                  {
                    OFFSET 1.1472 -3.4929 2.6336
                    CHANNELS 3 Zrotation Xrotation Yrotation
                    JOINT RightFinger02
                    {
                      OFFSET 0.8229 -2.3 1.6571
                      CHANNELS 3 Zrotation Xrotation Yrotation
                      End Site
                      {
                        OFFSET 0.5822 -1.6914 1.1582
                      }
                    }
                  }
                }
              }
            }
          }
        }
      }
    }
  }
  JOINT RightHip
  {
    OFFSET -9.412 3.9771 -0.7758
    CHANNELS 3 Zrotation Xrotation Yrotation
    JOINT RightKnee
    {
      OFFSET -0.7531 -40.938 0
      CHANNELS 3 Zrotation Xrotation Yrotation
      JOINT RightAnkle
      {
        OFFSET 0 -40.1986 0
        CHANNELS 3 Zrotation Xrotation Yrotation
        JOINT RightToe
        {
          OFFSET 0 -4.4182 9.239
          CHANNELS 3 Zrotation Xrotation Yrotation
          End Site
          {
            OFFSET 0 0 6.1981
          }
        }
      }
    }
  }
  JOINT LeftHip
  {
    OFFSET 9.4119 3.9773 -0.7758
    CHANNELS 3 Zrotation Xrotation Yrotation
    JOINT LeftKnee
    {
      OFFSET 0.7532 -40.9383 0
      CHANNELS 3 Zrotation Xrotation Yrotation
      JOINT LeftAnkle
      {
        OFFSET 0 -40.1986 0
        CHANNELS 3 Zrotation Xrotation Yrotation
        JOINT LeftToe
        {
          OFFSET 0 -4.4182 9.239
          CHANNELS 3 Zrotation Xrotation Yrotation
          End Site
          {
            OFFSET 0 0 6.1981
          }
        }
      }
    }
  }
}
MOTION
Frames:	4
Frame Time:	0.0333333
-27.582 -0.0941772 9.64337 -179.999 -89.9981 -179.999 -0.363065 8.41605 -0.0759628 -0.726682 16.8325 -0.0989529 -0.726683 16.8326 -0.0989527 -5.0561e-005 25.4132 5.99721 1.40001e-006 -15.5108 9.27488e-007 0.841574 0.29548 -3.56082 33.8248 41.6579 6.97063 -170.881 -82.0862 168.985 -22.0193 -27.5644 -14.21 6.27934e-007 7.43107e-006 4.58875e-006 -1.50837e-006 1.73905e-006 7.05766e-007 1.05942e-006 -1.55226e-006 3.04989e-006 6.27934e-007 7.43107e-006 4.58875e-006 -0.0128258 0.00232736 8.82413e-005 1.50848e-006 -1.59809e-006 -7.05705e-007 6.27934e-007 7.43107e-006 4.58875e-006 -0.0160436 0.00300739 0.000861393 -1.73401e-006 -9.10117e-007 2.58356e-006 6.27934e-007 7.43107e-006 4.58875e-006 -0.0125863 0.00313873 0.00282908 -1.7338e-006 -2.55068e-006 2.58368e-006 6.27934e-007 7.43107e-006 4.58875e-006 -1.50837e-006 1.73905e-006 7.05766e-007 1.05942e-006 -1.55226e-006 3.04989e-006 -1.43854 0.726687 -1.56488 -6.4711 34.3901 -18.449 29.8805 -72.5929 56.2513 5.47267 1.36247 23.9037 4.77083e-015 3.18055e-015 -7.35503e-015 1.34079e-006 -8.42925e-007 2.54923e-006 -3.18055e-015 -4.77083e-015 -1.98785e-015 4.77083e-015 3.18055e-015 -7.35503e-015 0.012959 0.0023148 -8.55062e-005 1.59028e-015 3.18055e-015 -3.57812e-015 4.77083e-015 3.18055e-015 -7.35503e-015 0.0163286 0.00303965 -0.000869824 -7.95139e-016 -1.59028e-015 1.19271e-015 4.77083e-015 3.18055e-015 -7.35503e-015 0.0146078 0.00368166 -0.00326755 1.59028e-015 1.59028e-015 -3.18055e-015 4.77083e-015 3.18055e-015 -7.35503e-015 1.34079e-006 -8.42925e-007 2.54923e-006 -3.18055e-015 -4.77083e-015 -1.98785e-015 -15.3248 -25.0867 -22.4696 7.00141 69.837 -7.87049 -7.80726 11.4706 -1.06361 -1.52204e-006 8.26974e-006 -3.81253e-006 16.6963 -0.760703 1.11563 -2.29936 18.9413 1.44036 6.2421 32.4412 -6.09662 -3.91094e-007 -2.36772e-006 1.21785e-006 
-27.5821 -0.0945206 9.64334 -180 -89.9981 -180 -0.363064 8.41606 -0.0759629 -0.726682 16.8325 -0.0989526 -0.726683 16.8326 -0.0989523 7.43288e-005 26.8884 5.99709 6.39628e-007 -15.3466 -5.5798e-008 0.841574 0.295483 -3.56083 33.8248 41.6579 6.97063 -172.239 -82.5528 167.199 -22.0194 -27.5644 -14.21 -1.59028e-015 0 5.56597e-015 -4.77083e-015 0 -0 -1.59028e-015 0 -0 -1.59028e-015 0 5.56597e-015 -0.0128353 0.0023336 8.70708e-005 -3.18055e-015 3.18055e-015 1.59028e-015 -1.59028e-015 0 5.56597e-015 -0.0160449 0.00299394 0.000859979 -1.76556e-031 6.36111e-015 1.59028e-015 -1.59028e-015 0 5.56597e-015 -0.0125978 0.00312494 0.0028233 -3.18055e-015 1.59028e-014 3.18055e-015 -1.59028e-015 0 5.56597e-015 -4.77083e-015 0 -0 -1.59028e-015 0 -0 -1.43854 0.726689 -1.56488 -6.47107 34.3901 -18.449 29.8806 -72.5929 56.2515 5.47266 1.36249 23.9037 1.43452e-031 -1.59028e-015 5.1684e-015 -8.74238e-006 -8.33494e-006 3.81021e-006 -1.65078e-006 -1.82657e-008 -4.13488e-007 1.43452e-031 -1.59028e-015 5.1684e-015 0.0129869 0.00233062 -8.56883e-005 -3.18055e-015 -1.83087e-008 5.56597e-015 1.43452e-031 -1.59028e-015 5.1684e-015 0.0162976 0.00303021 -0.000868847 -2.99073e-006 9.90451e-007 -2.96291e-006 1.43452e-031 -1.59028e-015 5.1684e-015 0.0145872 0.00368326 -0.00325901 -7.95139e-016 -1.59028e-015 -1.59028e-015 1.43452e-031 -1.59028e-015 5.1684e-015 -8.74238e-006 -8.33494e-006 3.81021e-006 -1.65078e-006 -1.82657e-008 -4.13488e-007 -15.2751 -25.0913 -22.3581 7.00117 69.8369 -7.87043 -7.80725 11.4697 -1.06367 2.86812e-006 4.26981e-007 1.11709e-006 16.6964 -0.761062 1.1156 -2.29933 18.9415 1.44035 6.24201 32.4414 -6.09662 6.26367e-006 -1.26724e-005 2.51715e-006 
-27.5822 -0.0948563 9.64332 179.999 -89.9981 179.999 -0.363064 8.41606 -0.0759629 -0.726682 16.8325 -0.0989526 -0.726683 16.8326 -0.0989523 0.000205631 28.3611 5.99696 -4.50834e-007 -15.1823 6.6826e-007 0.841574 0.295483 -3.56083 33.8247 41.6579 6.97065 -173.805 -83.013 165.205 -22.0194 -27.5644 -14.2101 0 0 -7.15625e-015 4.86128e-006 1.31185e-005 4.4828e-006 -3.0502e-006 -3.85096e-006 1.34223e-006 0 0 -7.15625e-015 -0.0128197 0.00232935 8.72603e-005 -9.53593e-007 9.29408e-006 5.32198e-006 0 0 -7.15625e-015 -0.0160373 0.00299105 0.000862175 1.59028e-015 -3.18055e-015 -1.59028e-015 0 0 -7.15625e-015 -0.0125974 0.00311758 0.0028297 7.95139e-015 -3.18055e-015 -4.77083e-015 0 0 -7.15625e-015 4.86128e-006 1.31185e-005 4.4828e-006 -3.0502e-006 -3.85096e-006 1.34223e-006 -1.43854 0.726689 -1.56488 -6.47107 34.3901 -18.449 29.8806 -72.5929 56.2515 5.47266 1.36249 23.9037 2.38542e-015 -1.59028e-015 5.1684e-015 -8.74238e-006 -8.33494e-006 3.81021e-006 -1.65078e-006 -1.82657e-008 -4.13488e-007 2.38542e-015 -1.59028e-015 5.1684e-015 0.0129869 0.00233062 -8.56883e-005 -7.95139e-016 -1.83087e-008 1.78906e-015 2.38542e-015 -1.59028e-015 5.1684e-015 0.0162976 0.00303021 -0.000868847 -2.99073e-006 9.90451e-007 -2.96291e-006 2.38542e-015 -1.59028e-015 5.1684e-015 0.0145872 0.00368326 -0.00325901 1.59028e-015 0 -2.98177e-015 2.38542e-015 -1.59028e-015 5.1684e-015 -8.74238e-006 -8.33494e-006 3.81021e-006 -1.65078e-006 -1.82657e-008 -4.13488e-007 -15.2254 -25.0954 -22.2466 7.00111 69.8364 -7.8703 -7.80724 11.4689 -1.06374 2.19272e-006 3.34074e-006 -4.25569e-006 16.6965 -0.761211 1.11561 -2.29935 18.9414 1.44031 6.24197 32.4416 -6.09662 3.22509e-006 -9.0336e-006 1.0243e-006 
-27.5823 -0.0951996 9.6433 179.999 -89.9981 179.999 -0.363064 8.41606 -0.0759628 -0.726682 16.8325 -0.0989526 -0.726683 16.8326 -0.0989521 0.000340187 29.831 5.99683 2.64624e-007 -15.0181 2.95917e-007 0.841574 0.295483 -3.56083 33.8249 41.6578 6.97058 -175.62 -83.4659 162.963 -22.0194 -27.5644 -14.2101 -1.59028e-015 9.54166e-015 -7.95139e-016 4.77083e-015 6.36111e-015 7.95139e-016 1.87209e-006 -5.1551e-006 -2.407e-006 -1.59028e-015 9.54166e-015 -7.95139e-016 -0.0128152 0.00231467 7.87077e-005 1.76556e-031 -6.36111e-015 1.59028e-015 -1.59028e-015 9.54166e-015 -7.95139e-016 -0.0160447 0.00297844 0.000849892 3.18055e-015 -6.36111e-015 -1.59028e-015 -1.59028e-015 9.54166e-015 -7.95139e-016 -0.012591 0.00311249 0.00282674 -3.53113e-031 6.36111e-015 3.18055e-015 -1.59028e-015 9.54166e-015 -7.95139e-016 4.77083e-015 6.36111e-015 7.95139e-016 1.87209e-006 -5.1551e-006 -2.407e-006 -1.43854 0.726689 -1.56488 -6.47107 34.3901 -18.449 29.8806 -72.5929 56.2515 5.47266 1.36249 23.9037 -0 0 2.5842e-015 -8.74238e-006 -8.33494e-006 3.81021e-006 -1.65078e-006 -1.82657e-008 -4.13488e-007 -0 0 2.5842e-015 0.0129869 0.00233062 -8.56883e-005 -7.95139e-016 -1.83087e-008 3.37934e-015 -0 0 2.5842e-015 0.0162976 0.00303021 -0.000868847 -2.99073e-006 9.90451e-007 -2.96291e-006 -0 0 2.5842e-015 0.0145872 0.00368326 -0.00325901 1.59028e-015 -3.18055e-015 -2.38542e-015 -0 0 2.5842e-015 -8.74238e-006 -8.33494e-006 3.81021e-006 -1.65078e-006 -1.82657e-008 -4.13488e-007 -15.1756 -25.0999 -22.1352 7.00091 69.8363 -7.87029 -7.80722 11.4679 -1.0638 -1.3809e-006 1.70941e-006 -8.97688e-007 16.6965 -0.76152 1.11559 -2.29935 18.9415 1.44032 6.24194 32.4418 -6.09664 3.35106e-006 -2.75531e-007 1.5046e-006 
